<svg width="24" height="24" viewBox="0 0 24 24" fill="none" xmlns="http://www.w3.org/2000/svg">
  <path fill-rule="evenodd" clip-rule="evenodd" d="M11.6025 5.00154C11.9415 5.35212 12.265 5.68688 12.5731 6.00749C15.6581 9.21687 17.2006 11.0111 17.2006 13.1924C17.2041 14.6798 16.6573 16.1684 15.5603 17.3031C13.3733 19.5656 9.82739 19.5656 7.64048 17.3031C6.54338 16.1684 5.99652 14.6798 6.00002 13.1924C6.00002 11.0111 7.54261 9.21687 10.6277 6.00749C10.9358 5.68688 11.2594 5.35212 11.5983 5.0014L11.5997 5L11.6025 5.00154ZM8.52686 10.4753C9.22956 9.52279 10.2331 8.43927 11.6004 7.01596C12.9675 8.43927 13.9712 9.52279 14.6737 10.4753C15.5135 11.6139 15.8005 12.4074 15.8005 13.1924V13.1957C15.8006 13.2638 15.7994 13.3318 15.7964 13.3997H7.40415C7.40135 13.3318 7.39995 13.2638 7.40009 13.1956V13.1924C7.40009 12.4074 7.6871 11.6139 8.52686 10.4753Z" fill="black"/>
</svg>
