<svg width="24" height="24" viewBox="0 0 24 24" fill="none" xmlns="http://www.w3.org/2000/svg">
  <g id="58a6f3f66a4d780f31221da97657c9f4">
    <path id="33b9bce15ab8d702fdc729838156c586" d="M18.9733 14.6216C18.8807 14.3365 18.5746 14.1807 18.2895 14.2731L17.5838 14.5024C18.0161 13.6084 18.2425 12.6252 18.2425 11.6212C18.2425 7.97027 15.2723 5 11.6212 5C7.97027 5 5 7.97027 5 11.6212C5 15.2722 7.97027 18.2425 11.6212 18.2425C11.921 18.2425 12.164 17.9995 12.164 17.6998C12.164 17.4001 11.921 17.157 11.6212 17.157C8.56879 17.157 6.08545 14.6737 6.08545 11.6212C6.08545 8.56879 8.56879 6.08545 11.6212 6.08545C14.6737 6.08545 17.157 8.56879 17.157 11.6212C17.157 12.4623 16.9673 13.2858 16.6046 14.0339L16.3635 13.2916C16.2709 13.0066 15.9647 12.8507 15.6797 12.9432C15.3946 13.0358 15.2386 13.342 15.3312 13.6271L15.9712 15.5969C16.0456 15.8262 16.2584 15.9721 16.4872 15.9721C16.5427 15.9721 16.5993 15.9635 16.655 15.9454L18.6248 15.3055C18.9099 15.2129 19.0659 14.9067 18.9733 14.6216Z" fill="black"></path>
  </g>
</svg>