<svg width="24" height="24" viewBox="0 0 24 24" fill="none" xmlns="http://www.w3.org/2000/svg">
<path fill-rule="evenodd" clip-rule="evenodd" d="M8.394 18.073C7.582 17.888 6.683 17.326 5.658 16.365C5.457 16.176 5.446 15.86 5.635 15.658C5.825 15.457 6.14 15.446 6.342 15.635C7.317 16.549 8.059 16.971 8.616 17.098C9.133 17.217 9.52 17.088 9.866 16.782C10.24 16.451 10.572 15.901 10.884 15.171C11.193 14.448 11.459 13.606 11.731 12.727L11.784 12.554C12.036 11.74 12.295 10.902 12.593 10.152C12.909 9.354 13.289 8.603 13.791 8.065C14.311 7.508 14.979 7.165 15.819 7.245C16.622 7.321 17.501 7.779 18.491 8.619C18.701 8.797 18.728 9.113 18.549 9.323C18.371 9.534 18.055 9.56 17.845 9.382C16.918 8.596 16.229 8.288 15.725 8.24C15.256 8.195 14.878 8.367 14.522 8.748C14.15 9.147 13.826 9.756 13.522 10.52C13.24 11.233 12.992 12.035 12.737 12.86L12.687 13.023C12.417 13.894 12.136 14.786 11.804 15.563C11.474 16.333 11.072 17.05 10.53 17.531C9.959 18.036 9.247 18.268 8.394 18.074V18.073Z" fill="black"/>
</svg>
