<svg width="24" height="24" viewBox="0 0 24 24" fill="none" xmlns="http://www.w3.org/2000/svg">
<path fill-rule="evenodd" clip-rule="evenodd" d="M9.622 10.764C7.882 12.471 6.987 15.338 6.488 17.561C6.428 17.831 6.16 18.001 5.891 17.94C5.621 17.88 5.451 17.612 5.512 17.342C6.012 15.113 6.953 11.981 8.922 10.051C9.922 9.069 11.195 8.392 12.796 8.311C14.386 8.231 16.243 8.74 18.422 10.021C18.66 10.161 18.739 10.467 18.599 10.705C18.459 10.944 18.153 11.023 17.915 10.883C15.843 9.664 14.18 9.243 12.847 9.31C11.525 9.377 10.475 9.927 9.622 10.764Z" fill="black"/>
</svg>
