<svg width="24" height="24" viewBox="0 0 24 24" fill="none" xmlns="http://www.w3.org/2000/svg">
<path fill-rule="evenodd" clip-rule="evenodd" d="M16.997 11.823C17.46 10.644 17.668 9.59 17.668 9C17.668 8.724 17.892 8.5 18.168 8.5C18.444 8.5 18.668 8.724 18.668 9C18.668 9.76 18.418 10.943 17.928 12.189C17.434 13.443 16.68 14.809 15.635 15.918C14.587 17.029 13.231 17.898 11.548 18.102C9.863 18.308 7.924 17.84 5.728 16.42C5.497 16.27 5.43 15.96 5.58 15.728C5.73 15.496 6.04 15.43 6.272 15.58C8.326 16.91 10.032 17.28 11.427 17.11C12.822 16.94 13.976 16.22 14.907 15.232C15.842 14.24 16.537 12.994 16.997 11.822V11.823Z" fill="black"/>
</svg>
