<svg width="24" height="24" viewBox="0 0 24 24" fill="none" xmlns="http://www.w3.org/2000/svg">
<path fill-rule="evenodd" clip-rule="evenodd" d="M12 7C9.2375 7 7 9.2375 7 12C7 14.7625 9.2375 17 12 17C14.7625 17 17 14.7625 17 12C17 9.2375 14.7625 7 12 7ZM12 8.0572C9.82161 8.0572 8.05721 9.8216 8.05721 12C8.05721 14.1784 9.82161 15.9428 12 15.9428C14.1784 15.9428 15.9428 14.1784 15.9428 12C15.9428 9.8216 14.1784 8.0572 12 8.0572Z" fill="black"/>
<path d="M13.0799 12C13.0799 12.5964 12.5964 13.0799 12 13.0799C11.4036 13.0799 10.9201 12.5964 10.9201 12C10.9201 11.4036 11.4036 10.9201 12 10.9201C12.5964 10.9201 13.0799 11.4036 13.0799 12Z" fill="black"/>
</svg>
