<svg width="24" height="24" viewBox="0 0 24 24" fill="none" xmlns="http://www.w3.org/2000/svg">
<path fill-rule="evenodd" clip-rule="evenodd" d="M4.99481 12C4.99481 13.657 6.33084 15 7.97923 15C9.45752 15 10.6851 13.919 10.9229 12.5H8.97404C8.93127 12.5 8.88948 12.494 8.84969 12.484C8.68057 12.792 8.35428 13 7.97923 13C7.4301 13 6.98443 12.552 6.98443 12C6.98443 11.448 7.4301 11 7.97923 11C8.35428 11 8.68057 11.208 8.84969 11.516C8.88948 11.506 8.93127 11.5 8.97404 11.5H10.9229C10.6851 10.081 9.45752 9 7.97923 9C6.33084 9 4.99481 10.343 4.99481 12ZM11.9286 11.5C11.6819 9.527 10.0086 8 7.97923 8C5.78071 8 4 9.79 4 12C4 14.21 5.78071 16 7.97923 16C10.0086 16 11.6829 14.473 11.9286 12.5H18.364L16.7256 14.146C16.5316 14.342 16.5316 14.658 16.7256 14.854C16.9206 15.049 17.2349 15.049 17.4299 14.854L19.8105 12.46C20.0632 12.206 20.0632 11.794 19.8105 11.54L17.4299 9.146C17.2349 8.951 16.9206 8.951 16.7256 9.146C16.5316 9.342 16.5316 9.658 16.7256 9.854L18.364 11.5H11.9286Z" fill="black"/>
</svg>
