<svg width="24" height="24" viewBox="0 0 24 24" fill="none" xmlns="http://www.w3.org/2000/svg">
<path fill-rule="evenodd" clip-rule="evenodd" d="M16 12C16 14.21 14.21 16 12 16C9.79 16 8 14.21 8 12C8 9.96 9.528 8.276 11.502 8.03V11.133C11.202 11.306 11 11.629 11 12C11 12.552 11.448 13 12 13C12.552 13 13 12.552 13 12C13 11.91 12.988 11.824 12.966 11.742L15.161 9.548C15.687 10.225 16 11.076 16 12ZM17 12C17 14.761 14.761 17 12 17C9.239 17 7 14.761 7 12C7 9.239 9.239 7 12 7C14.761 7 17 9.239 17 12Z" fill="black"/>
</svg>
