<svg width="24" height="24" viewBox="0 0 24 24" fill="none" xmlns="http://www.w3.org/2000/svg">
<path d="M15.026 11.5L7 11.5L7 12.5L15.026 12.5C15.0687 12.5 15.1105 12.494 15.1503 12.484C15.3194 12.792 15.6457 13 16.0208 13C16.5699 13 17.0156 12.552 17.0156 12C17.0156 11.448 16.5699 11 16.0208 11C15.6457 11 15.3194 11.208 15.1503 11.516C15.1105 11.506 15.0687 11.5 15.026 11.5Z" fill="black"/>
<path d="M4.14549 14.854C3.9515 14.658 3.9515 14.342 4.14549 14.146L6.27734 12L4.14549 9.85399C3.9515 9.65799 3.9515 9.34199 4.14549 9.14599C4.34047 8.95099 4.65483 8.95099 4.84982 9.14599L7.23039 11.54C7.48307 11.794 7.48307 12.206 7.23039 12.46L4.84982 14.854C4.65483 15.049 4.34047 15.049 4.14549 14.854Z" fill="black"/>
<path fill-rule="evenodd" clip-rule="evenodd" d="M16 16C18.2091 16 20 14.2091 20 12C20 9.79086 18.2091 8 16 8C13.7909 8 12 9.79086 12 12C12 14.2091 13.7909 16 16 16ZM16 15C17.6569 15 19 13.6569 19 12C19 10.3431 17.6569 9 16 9C14.3431 9 13 10.3431 13 12C13 13.6569 14.3431 15 16 15Z" fill="black"/>
</svg>
