<svg width="24" height="24" viewBox="0 0 24 24" fill="none" xmlns="http://www.w3.org/2000/svg">
<path fill-rule="evenodd" clip-rule="evenodd" d="M12.5 5.5C12.5 5.224 12.276 5 12 5C11.724 5 11.5 5.224 11.5 5.5V7.025C8.974 7.275 7 9.407 7 12C7 14.761 9.239 17 12 17C14.761 17 17 14.761 17 12C17 10.8 16.577 9.698 15.872 8.836L16.354 8.354C16.549 8.158 16.549 7.842 16.354 7.646C16.158 7.451 15.842 7.451 15.646 7.646L15.164 8.128C14.424 7.522 13.505 7.124 12.499 7.025L12.5 7V5.5ZM16 12C16 14.21 14.21 16 12 16C9.79 16 8 14.21 8 12C8 9.79 9.79 8 12 8C14.21 8 16 9.79 16 12ZM12 9C12.276 9 12.5 9.224 12.5 9.5V11.134C12.799 11.307 13 11.63 13 12C13 12.552 12.552 13 12 13C11.448 13 11 12.552 11 12C11 11.63 11.201 11.307 11.5 11.134V9.5C11.5 9.224 11.724 9 12 9Z" fill="black"/>
</svg>
