<svg width="24" height="24" viewBox="0 0 24 24" fill="none" xmlns="http://www.w3.org/2000/svg">
<path fill-rule="evenodd" clip-rule="evenodd" d="M10.7368 12C10.7368 9.44106 12.8095 7.36842 15.3684 7.36842C17.9274 7.36842 20 9.44106 20 12C20 14.5589 17.9274 16.6316 15.3684 16.6316C12.8095 16.6316 10.7368 14.5589 10.7368 12Z" fill="black"/>
<path d="M10.7214 9.00535C10.8995 8.72932 11.1017 8.4702 11.3248 8.23092C10.566 7.68793 9.63628 7.36842 8.63158 7.36842C6.07263 7.36842 4 9.44105 4 12C4 14.5589 6.07263 16.6316 8.63158 16.6316C9.63628 16.6316 10.566 16.3121 11.3248 15.7691C11.1017 15.5298 10.8995 15.2707 10.7214 14.9946C10.1294 15.4084 9.40897 15.651 8.63159 15.651C6.61439 15.651 4.98056 14.0172 4.98056 12C4.98056 9.9828 6.61439 8.34897 8.63159 8.34897C9.40897 8.34897 10.1294 8.59162 10.7214 9.00535Z" fill="black"/>
</svg>
