<svg width="24" height="24" viewBox="0 0 24 24" fill="none" xmlns="http://www.w3.org/2000/svg">
<path fill-rule="evenodd" clip-rule="evenodd" d="M8.07692 6.07692C7.48216 6.07692 7 6.55908 7 7.15385V17.9231C7 18.5179 7.48216 19 8.07692 19H16.6923C17.2871 19 17.7692 18.5179 17.7692 17.9231V7.15385C17.7692 6.55908 17.2871 6.07692 16.6923 6.07692H14.5385L13.4615 5H11.3077L10.2308 6.07692H8.07692ZM16.6923 17.9231V7.15385H14L12.9231 6.07692H11.8462L10.7692 7.15385H8.07692V17.9231H16.6923Z" fill="currentColor"/>
<path d="M15.6154 12.5385H9.15385V13.6154H15.6154V12.5385Z" fill="currentColor"/>
<path d="M15.6154 10.3846H9.15385V11.4615H15.6154V10.3846Z" fill="currentColor"/>
<path d="M13.4615 6.07692L14.5385 6.07692V8.23077C14.5385 8.76923 14.5385 8.76923 14 8.76923H10.7692C10.2308 8.76923 10.2308 8.76923 10.2308 8.23077L10.2308 6.07692L11.3077 6.07692V7.69231H13.4615V6.07692Z" fill="currentColor"/>
<path d="M15.6154 14.6923H9.15385V15.7692H15.6154V14.6923Z" fill="currentColor"/>
</svg>
