<svg width="24" height="24" viewBox="0 0 24 24" fill="none" xmlns="http://www.w3.org/2000/svg">
<path d="M19 18.1875C19 18.6362 18.6362 19 18.1875 19H6.8125C6.36377 19 6 18.6362 6 18.1875C6 17.7388 6.36377 17.375 6.8125 17.375H18.1875C18.6362 17.375 19 17.7388 19 18.1875ZM11.9255 15.6136C12.0842 15.7723 12.2921 15.8516 12.5 15.8516C12.7079 15.8516 12.9159 15.7723 13.0745 15.6136L15.9533 12.7349C16.2706 12.4176 16.2706 11.9031 15.9533 11.5859C15.6359 11.2685 15.1215 11.2685 14.8042 11.5859L13.3125 13.0775V6.8125C13.3125 6.36377 12.9487 6 12.5 6C12.0513 6 11.6875 6.36377 11.6875 6.8125V13.0775L10.1958 11.5859C9.87847 11.2685 9.36407 11.2685 9.04671 11.5859C8.72943 11.9031 8.72943 12.4176 9.04671 12.7349L11.9255 15.6136Z" fill="black"/>
</svg>
