<svg width="24" height="24" viewBox="0 0 24 24" fill="none" xmlns="http://www.w3.org/2000/svg">
  <g>
    <path d="M17.612 11.8012C18.1674 11.2736 18.6471 10.6672 19.033 10H17.8488C16.5833 11.8142 14.4815 13 12.1034 13C9.72524 13 7.62344 11.8142 6.35798 10H5.17373C5.55971 10.6673 6.0394 11.2737 6.59486 11.8013L5 13.3962L5.70712 14.1033L7.36446 12.4459C8.07518 12.9693 8.87565 13.378 9.73857 13.6447L9.12156 15.866L10.0851 16.1336L10.7113 13.8793C11.1634 13.9586 11.6285 14 12.1034 14C12.5782 14 13.0433 13.9586 13.4954 13.8793L14.1216 16.1336L15.0851 15.866L14.4681 13.6447C15.3311 13.3781 16.1317 12.9693 16.8424 12.4458L18.5 14.1033L19.2071 13.3962L17.612 11.8012Z" fill="black" fill-opacity="0.8"></path>
  </g>
</svg>