<svg width="24" height="24" viewBox="0 0 24 24" fill="none" xmlns="http://www.w3.org/2000/svg">
  <g id="7d1012c6fe5a40da7f1775c5a470adb6">
    <path id="55cccfa96525784feaaf4bd014d65e22" d="M10.6582 14.1855C10.6582 13.4005 10.7516 12.7823 10.9384 12.3306C11.1253 11.8737 11.4282 11.4785 11.8471 11.1452C12.2661 10.8118 12.5832 10.5081 12.7983 10.2339C13.0191 9.9543 13.1295 9.64785 13.1295 9.31452C13.1295 8.50269 12.7615 8.09677 12.0255 8.09677C11.6858 8.09677 11.4112 8.21505 11.2017 8.45161C10.9922 8.68817 10.8818 9.00806 10.8705 9.41129H8C8.01132 8.33602 8.36801 7.5 9.07006 6.90323C9.77212 6.30108 10.7573 6 12.0255 6C13.288 6 14.2647 6.27688 14.9554 6.83065C15.6518 7.38441 16 8.17204 16 9.19355C16 9.63978 15.9066 10.0457 15.7197 10.4113C15.5329 10.7769 15.2328 11.1505 14.8195 11.5323L13.8429 12.3952C13.5655 12.6478 13.373 12.9086 13.2654 13.1774C13.1578 13.4409 13.0984 13.7769 13.087 14.1855H10.6582ZM10.31 16.6371C10.31 16.2392 10.46 15.914 10.7601 15.6613C11.0658 15.4032 11.4452 15.2742 11.8981 15.2742C12.351 15.2742 12.7275 15.4032 13.0276 15.6613C13.3333 15.914 13.4862 16.2392 13.4862 16.6371C13.4862 17.0349 13.3333 17.3629 13.0276 17.621C12.7275 17.8737 12.351 18 11.8981 18C11.4452 18 11.0658 17.8737 10.7601 17.621C10.46 17.3629 10.31 17.0349 10.31 16.6371Z" fill="black"></path>
    <path id="fc4be616c866b620329a0d6f109dd339" fill-rule="evenodd" clip-rule="evenodd" d="M3 12C3 7.0275 7.0275 3 12 3C16.9725 3 21 7.0275 21 12C21 16.9725 16.9725 21 12 21C7.0275 21 3 16.9725 3 12ZM4 12C4 7.58 7.58 4 12 4C16.42 4 20 7.58 20 12C20 16.42 16.42 20 12 20C7.58 20 4 16.42 4 12Z" fill="black"></path>
  </g>
</svg>