<svg width="24" height="24" viewBox="0 0 24 24" fill="none" xmlns="http://www.w3.org/2000/svg">
  <path id="44e85788" d="M10.8455 14.9694H12.0574V14.6078C12.0775 13.1349 12.4792 12.4653 13.6911 11.6686C14.9632 10.8384 15.6059 9.88761 15.6059 8.52845C15.6059 6.48637 14.0794 5 11.8565 5C9.72071 5 8.06695 6.41272 8 8.61549H9.26542C9.33238 6.95505 10.5175 6.07126 11.8565 6.07126C13.2692 6.07126 14.3874 7.02869 14.3874 8.47489C14.3874 9.50598 13.8384 10.2492 12.8608 10.8852C11.5285 11.7355 10.8589 12.4921 10.8455 14.6078V14.9694ZM11.4883 19C12.0239 19 12.4524 18.5648 12.4524 18.0359C12.4524 17.5002 12.0239 17.0717 11.4883 17.0717C10.9593 17.0717 10.5242 17.5002 10.5242 18.0359C10.5242 18.5648 10.9593 19 11.4883 19Z" fill="black"></path>
</svg>