<svg width="24" height="24" viewBox="0 0 24 24" fill="none" xmlns="http://www.w3.org/2000/svg">
<path fill-rule="evenodd" clip-rule="evenodd" d="M12.8348 6.68722L12.7132 6.3976C12.5557 6.01959 12.2635 5.87522 12.0001 5.87522C11.7367 5.87522 11.4444 6.01959 11.2869 6.3976L11.1653 6.68722C10.6753 7.86236 9.42231 8.55099 8.16842 8.19223L7.73092 8.06623C7.46054 7.98923 7.20067 8.08811 7.01779 8.35236C6.91825 8.49525 6.86138 8.66348 6.85379 8.83746C6.8462 9.01143 6.8882 9.18398 6.97491 9.33499C7.62504 10.4926 7.32667 12.0195 6.22241 12.7913C5.94416 12.9855 5.82341 13.3285 5.89428 13.6873C5.96516 14.0452 6.19353 14.2718 6.48316 14.3199L6.65379 14.3488C7.98817 14.5702 8.85005 15.8249 8.77393 17.1313C8.74768 17.5714 8.96643 17.8847 9.22893 18.0308C9.48093 18.1717 9.77406 18.1664 10.0348 17.9363L10.3612 17.6476C10.8111 17.2427 11.3949 17.0187 12.0001 17.0187C12.6053 17.0187 13.1891 17.2427 13.639 17.6476L13.9653 17.9363C14.2261 18.1673 14.5192 18.1726 14.7721 18.0308C15.0346 17.8847 15.2525 17.5714 15.2271 17.1313C15.1501 15.8249 16.012 14.5702 17.3472 14.3488L17.517 14.3199C17.8057 14.2718 18.035 14.0452 18.1059 13.6873C18.1767 13.3285 18.056 12.9855 17.7777 12.7913C16.6735 12.0195 16.3751 10.4926 17.0252 9.33499C17.1118 9.1839 17.1537 9.0113 17.1459 8.83733C17.1382 8.66335 17.0812 8.49516 16.9815 8.35236C16.7995 8.08811 16.5396 7.98923 16.2684 8.06623L15.8317 8.19136C14.5778 8.55011 13.3248 7.86236 12.8348 6.68722ZM13.5208 6.05984C12.9311 4.64671 11.0691 4.64671 10.4793 6.05984L10.3586 6.35035C10.0234 7.15273 9.19831 7.57623 8.40905 7.35048L7.97242 7.22535C6.59429 6.8316 5.47428 8.44861 6.21191 9.76287C6.65379 10.5504 6.43678 11.5741 5.7219 12.0729C4.5039 12.9243 4.90552 14.9447 6.33966 15.1835L6.51029 15.2115C7.35029 15.3515 7.95405 16.1653 7.8998 17.0797C7.8088 18.6442 9.49231 19.5857 10.6149 18.5908L10.9413 18.3021C11.2311 18.0389 11.6086 17.8931 12.0001 17.8931C12.3916 17.8931 12.769 18.0389 13.0588 18.3021L13.3852 18.5908C14.5087 19.5857 16.1914 18.6442 16.1004 17.0797C16.047 16.1644 16.6499 15.3515 17.4907 15.2115L17.6605 15.1835C19.0946 14.9447 19.4963 12.9243 18.2791 12.0738C17.5634 11.5733 17.3464 10.5495 17.7882 9.76375C18.5259 8.44861 17.4059 6.83072 16.0277 7.22535L15.5902 7.35048C14.8027 7.57623 13.9767 7.15273 13.6425 6.35035L13.5208 6.05984Z" fill="black"/>
<path fill-rule="evenodd" clip-rule="evenodd" d="M12.0001 14.1878C12.4642 14.1878 12.9093 14.0034 13.2375 13.6752C13.5657 13.347 13.7501 12.9019 13.7501 12.4378C13.7501 11.9736 13.5657 11.5285 13.2375 11.2003C12.9093 10.8721 12.4642 10.6877 12.0001 10.6877C11.5359 10.6877 11.0908 10.8721 10.7626 11.2003C10.4344 11.5285 10.2501 11.9736 10.2501 12.4378C10.2501 12.9019 10.4344 13.347 10.7626 13.6752C11.0908 14.0034 11.5359 14.1878 12.0001 14.1878ZM12.0001 15.0628C12.6963 15.0628 13.364 14.7862 13.8562 14.2939C14.3485 13.8016 14.6251 13.134 14.6251 12.4378C14.6251 11.7416 14.3485 11.0739 13.8562 10.5816C13.364 10.0893 12.6963 9.81274 12.0001 9.81274C11.3039 9.81274 10.6362 10.0893 10.1439 10.5816C9.65162 11.0739 9.37506 11.7416 9.37506 12.4378C9.37506 13.134 9.65162 13.8016 10.1439 14.2939C10.6362 14.7862 11.3039 15.0628 12.0001 15.0628Z" fill="black"/>
</svg>
